<?xml version="1.0" encoding="UTF-8"?>
<svg width="1200pt" height="1200pt" version="1.1" viewBox="0 0 1200 1200" xmlns="http://www.w3.org/2000/svg">
 <path d="m862.8 450s-338.4 342-340.8 343.2c-13.199 13.199-34.801 13.199-48 0l-165.6-166.8c-13.199-13.199-13.199-34.801-1.1992-48 13.199-13.199 34.801-13.199 48-1.1992l144 144 316.8-319.2c13.199-13.199 34.801-13.199 48 0 12 13.199 12 34.801-1.1992 48zm277.2 150c0 298.8-241.2 540-540 540s-540-241.2-540-540 241.2-540 540-540 540 241.2 540 540zm-66 0c0-261.6-212.4-472.8-474-472.8-260.4 0-472.8 211.2-472.8 472.8v1.1992c0 261.6 212.4 472.8 474 472.8 261.6-1.1992 472.8-212.4 472.8-474z" fill="currentColor"/>
</svg>
