<?xml version="1.0" encoding="UTF-8"?>
<svg width="1200pt" height="1200pt" version="1.1" viewBox="0 0 1200 1200" xmlns="http://www.w3.org/2000/svg">
 <path d="m1162.5 0h-1125c-9.9453 0-19.484 3.9492-26.516 10.984-7.0352 7.0312-10.984 16.57-10.984 26.516v1125c0 9.9453 3.9492 19.484 10.984 26.516 7.0312 7.0352 16.57 10.984 26.516 10.984h1125c9.9453 0 19.484-3.9492 26.516-10.984 7.0352-7.0312 10.984-16.57 10.984-26.516v-1125c0-9.9453-3.9492-19.484-10.984-26.516-7.0312-7.0352-16.57-10.984-26.516-10.984zm0 1162.5h-1125v-1125h1125z" fill="currentColor"/>
 <path d="m126.56 1087.5h421.88c7.7656 0 14.062-6.2969 14.062-14.062v-248.44h75v248.44c0 7.7656 6.2969 14.062 14.062 14.062h421.88c7.7656 0 14.062-6.2969 14.062-14.062v-421.88c0-7.7656-6.2969-14.062-14.062-14.062h-248.44v-75h248.44c7.7656 0 14.062-6.2969 14.062-14.062v-421.88c0-7.7656-6.2969-14.062-14.062-14.062h-421.88c-7.7656 0-14.062 6.2969-14.062 14.062v248.44h-75v-248.44c0-7.7656-6.2969-14.062-14.062-14.062h-421.88c-7.7656 0-14.062 6.2969-14.062 14.062v421.88c0 7.7656 6.2969 14.062 14.062 14.062h248.44v75h-248.44c-7.7656 0-14.062 6.2969-14.062 14.062v421.88c0 7.7656 6.2969 14.062 14.062 14.062zm923.44-412.5v375h-375v-225h135.94c7.7656 0 14.062-6.2969 14.062-14.062v-135.94zm-375 112.5v-112.5h112.5v112.5zm0-637.5h375v375h-225v-135.94c0-7.7656-6.2969-14.062-14.062-14.062h-135.94zm0 262.5h112.5v112.5h-112.5zm-525 112.5v-375h375v225h-135.94c-7.7656 0-14.062 6.2969-14.062 14.062v135.94zm375-112.5v112.5h-112.5v-112.5zm-112.5 150h135.94c7.7656 0 14.062-6.2969 14.062-14.062v-135.94h75v135.94c0 7.7656 6.2969 14.062 14.062 14.062h135.94v75h-135.94c-7.7656 0-14.062 6.2969-14.062 14.062v135.94h-75v-135.94c0-7.7656-6.2969-14.062-14.062-14.062h-135.94zm0 112.5h112.5v112.5h-112.5zm-262.5 0h225v135.94c0 7.7656 6.2969 14.062 14.062 14.062h135.94v225h-375z" fill="currentColor"/>
</svg>
