<?xml version="1.0" encoding="UTF-8"?>
<svg width="1200pt" height="1200pt" version="1.1" viewBox="0 0 1200 1200" xmlns="http://www.w3.org/2000/svg">
 <path d="m87.609 378 495.61 273.61c4.7812 2.3906 10.781 3.6094 15.609 4.7812 6 0 10.781-1.2188 15.609-4.7812l495.61-273.61c16.781-8.3906 22.781-30 13.219-45.609-3.6094-6-8.3906-10.781-14.391-14.391l-492.1-254.39c-6-2.3906-10.781-3.6094-16.781-3.6094s-10.781 1.2188-16.781 3.6094l-494.44 254.39c-6 3.6094-10.781 8.3906-14.391 14.391-8.3906 15.609-2.3906 37.219 13.219 45.609zm512.39-246 423.61 218.39-423.61 232.82-423.61-234zm-531.61 480c-8.3906-16.781-1.2188-37.219 15.609-45.609l105.61-52.781 72 39.609-90 45.609 428.39 232.78 428.39-234-90-45.609 72-39.609 105.61 52.781c16.781 8.3906 24 28.781 15.609 45.609-3.6094 6-8.3906 10.781-14.391 14.391l-500.44 274.82c-4.7812 2.3906-10.781 3.6094-15.609 3.6094-6 0-10.781-1.2188-15.609-3.6094l-503.95-273.61c-6-3.6094-10.828-8.3906-13.219-14.391zm1063.2 236.39c-3.6094 6-8.3906 10.781-14.391 14.391l-500.44 273.61c-6 2.3906-10.781 3.6094-16.781 3.6094s-10.781-1.2188-15.609-3.6094l-502.78-273.61c-6-3.6094-10.781-8.3906-14.391-14.391-8.3906-16.781-1.2188-37.219 15.609-45.609l99.609-45.609 72 39.609-84 38.391 429.56 232.82 428.39-234-84-38.391 72-39.609 99.609 45.609c18 9.6094 24 30 15.609 46.781z" fill="currentColor"/>
</svg>
