<?xml version="1.0" encoding="UTF-8"?>
<svg width="1200pt" height="1200pt" version="1.1" viewBox="0 0 1200 1200" xmlns="http://www.w3.org/2000/svg">
 <path d="m903.6 465.6h-33.602v-129.6c0-154.8-111.6-276-271.2-276-159.6 0-268.8 123.6-268.8 276v128.4 0h-33.602c-74.398 0-134.4 60-135.6 135.6v405.6c0 74.398 60 134.4 135.6 135.6h607.2c74.398 0 134.4-60 135.6-135.6v-405.6c0-74.398-61.199-134.4-135.6-134.4zm-506.4 0v-129.6c0-115.2 79.199-208.8 201.6-208.8 121.2 0 204 91.199 204 208.8v128.4 0h-405.6v1.2031zm573.6 540c0 37.199-30 67.199-67.199 67.199h-607.2c-37.199 0-67.199-30-67.199-67.199v-405.6c0-37.199 30-67.199 67.199-67.199h607.2c37.199 0 67.199 30 67.199 67.199zm-303.6-270c0 25.199-13.199 46.801-33.602 58.801h-1.1992 1.1992v110.4c0 19.199-15.602 33.602-33.602 33.602-19.199 0-33.602-15.602-33.602-33.602v-110.4h1.1992-1.1992c-20.398-12-33.602-33.602-33.602-58.801 0-37.199 30-67.199 67.199-67.199 37.207-1.2031 67.207 28.797 67.207 67.199z" fill="currentColor"/>
</svg>
