<?xml version="1.0" encoding="UTF-8"?>
<svg width="1200pt" height="1200pt" version="1.1" viewBox="0 0 1200 1200" xmlns="http://www.w3.org/2000/svg">
 <path d="m600 60c-298.8 0-540 241.2-540 540s241.2 540 540 540 540-241.2 540-540-241.2-540-540-540zm1.1992 1014c-261.6 0-472.8-211.2-474-472.8v-1.1992c0-260.4 211.2-472.8 472.8-472.8s472.8 211.2 474 472.8c0 261.6-211.2 472.8-472.8 474zm268.8-474c0 19.199-15.602 33.602-33.602 33.602h-202.8v202.8c0 19.199-15.602 33.602-33.602 33.602-19.199 0-33.602-15.602-33.602-33.602v-202.8h-202.8c-19.199 0-33.602-15.602-33.602-33.602s15.602-33.602 33.602-33.602h202.8l-0.003906-202.8c0-19.199 15.602-33.602 33.602-33.602 19.199 0 33.602 15.602 33.602 33.602v202.8h202.8c17.996-0.003906 33.598 14.398 33.598 33.598z" fill="currentColor"/>
</svg>
