<?xml version="1.0" encoding="UTF-8"?>
<svg width="1200pt" height="1200pt" version="1.1" viewBox="0 0 1200 1200" xmlns="http://www.w3.org/2000/svg">
 <path d="m1117.2 542.39-111.61-111.61c57.609-18 102-62.391 120-120 31.219-97.219-22.781-201.61-120-232.78-97.219-31.219-201.61 22.781-232.78 120l-115.22-115.22c-31.219-30-81.609-30-112.78 0l-158.44 157.22c-7.2188 7.2188-10.781 19.219-9.6094 30 3.6094 18 20.391 30 39.609 27.609 8.3906-1.2188 15.609-2.3906 24-2.3906 68.391 3.6094 123.61 58.781 127.22 127.22 3.6094 74.391-52.781 138-127.22 141.61-74.391-1.2188-134.39-61.219-134.39-135.61 0-8.3906 1.2188-16.781 2.3906-24 2.3906-10.781-1.2188-21.609-9.6094-30-13.219-13.219-34.781-13.219-48 0l-169.22 168c-31.219 31.219-31.219 81.609 0 112.78l462.05 460.78c15.609 15.609 34.781 24 56.391 22.781 21.609 0 42-8.3906 56.391-22.781l459.61-459.61c31.219-31.172 31.219-81.609 1.2188-114zm-48 66-460.82 459.61c-1.2188 1.2188-2.3906 2.3906-3.6094 2.3906-4.7812 3.6094-12 2.3906-15.609-2.3906l-458.39-459.61c-4.7812-4.7812-4.7812-13.219 0-18l114-114c22.781 90 103.22 153.61 195.61 153.61 87.609-3.6094 163.22-62.391 187.22-146.39 31.219-108-31.219-220.78-139.22-250.78l102-102c1.2188-1.2188 2.3906-2.3906 3.6094-3.6094 4.7812-3.6094 12-2.3906 15.609 3.6094l165.61 165.61c7.2188 7.2188 16.781 10.781 27.609 9.6094 18-2.3906 32.391-18 30-37.219l-1.2188-6c0-2.3906-1.2188-4.7812-1.2188-8.3906 0-64.781 52.781-117.61 117.61-117.61 64.781 0 117.61 52.781 117.61 117.61 0 64.781-52.781 117.61-117.61 117.61-2.3906 0-6 0-8.3906-1.2188l-4.7812-1.2188c-10.781-1.2188-20.391 2.3906-27.609 9.6094-13.219 13.219-13.219 34.781 0 48l162 162c4.7812 6 4.7812 14.391 0 19.172z" fill="currentColor" fill-rule="evenodd"/>
</svg>
