<?xml version="1.0" encoding="UTF-8"?>
<svg width="1200pt" height="1200pt" version="1.1" viewBox="0 0 1200 1200" xmlns="http://www.w3.org/2000/svg">
 <path d="m1106.4 566.4h-103.2c-16.801-196.8-172.8-354-369.6-369.6v-12l0.003906-91.195c0-18-14.402-33.602-33.602-33.602s-33.602 15.602-33.602 33.602v103.2c-196.8 16.801-354 172.8-369.6 369.6h-7.1992l-95.996-0.003906c-18 0-33.602 14.402-33.602 33.602s15.602 33.602 33.602 33.602h102c16.801 196.8 172.8 354 369.6 369.6v102c0 19.199 15.602 33.602 33.602 33.602s33.602-15.602 33.602-33.602v-102c196.8-16.801 354-172.8 369.6-369.6h103.2c19.199 0 33.602-15.602 33.602-33.602-0.007813-18-14.41-33.602-32.41-33.602zm-170.4 0h-302.4v-302.4c159.6 15.602 286.8 142.8 302.4 302.4zm-369.6-302.4v302.4h-302.4c15.602-159.6 142.8-286.8 302.4-302.4zm-302.4 369.6h302.4v302.4c-159.6-15.602-286.8-142.8-302.4-302.4zm369.6 302.4v-302.4h302.4c-15.602 159.6-142.8 286.8-302.4 302.4z" fill="currentColor"/>
</svg>
